<svg xmlns="http://www.w3.org/2000/svg" xmlns:xlink="http://www.w3.org/1999/xlink" version="1.1" width="256" height="256" viewBox="0 0 256 256" xml:space="preserve">

<defs>
</defs>
<g style="stroke: none; stroke-width: 0; stroke-dasharray: none; stroke-linecap: butt; stroke-linejoin: miter; stroke-miterlimit: 10; fill: none; fill-rule: nonzero; opacity: 1;" transform="translate(1.4065934065934016 1.4065934065934016) scale(2.81 2.81)" >
	<path d="M 65.171 5.403 H 24.829 c -1.665 0 -3.203 0.887 -4.034 2.329 L 0.624 42.671 c -0.832 1.442 -0.832 3.217 0 4.658 l 20.171 34.938 c 0.832 1.442 2.371 2.329 4.034 2.329 h 40.342 c 1.665 0 3.203 -0.887 4.034 -2.329 l 20.171 -34.938 c 0.832 -1.442 0.832 -3.217 0 -4.658 L 69.205 7.732 C 68.374 6.291 66.836 5.403 65.171 5.403 z" style="stroke: none; stroke-width: 1; stroke-dasharray: none; stroke-linecap: butt; stroke-linejoin: miter; stroke-miterlimit: 10; fill: rgb(41,121,255); fill-rule: nonzero; opacity: 1;" transform=" matrix(1 0 0 1 0 0) " stroke-linecap="round" />
	<path d="M 63.634 70.621 H 26.366 c -1.286 0 -2.329 -1.043 -2.329 -2.329 V 21.708 c 0 -1.286 1.043 -2.329 2.329 -2.329 h 30.28 l 9.317 9.317 v 39.597 C 65.963 69.578 64.92 70.621 63.634 70.621 z" style="stroke: none; stroke-width: 1; stroke-dasharray: none; stroke-linecap: butt; stroke-linejoin: miter; stroke-miterlimit: 10; fill: rgb(255,255,255); fill-rule: nonzero; opacity: 1;" transform=" matrix(1 0 0 1 0 0) " stroke-linecap="round" />
	<path d="M 56.646 19.379 v 6.988 c 0 1.286 1.043 2.329 2.329 2.329 h 6.988 L 56.646 19.379 z" style="stroke: none; stroke-width: 1; stroke-dasharray: none; stroke-linecap: butt; stroke-linejoin: miter; stroke-miterlimit: 10; fill: rgb(177,207,255); fill-rule: nonzero; opacity: 1;" transform=" matrix(1 0 0 1 0 0) " stroke-linecap="round" />
	<path d="M 40.959 44.606 h -3.11 v -9.902 l -3.056 0.892 v -2.355 l 5.879 -2.033 h 0.284 v 13.398 H 40.959 z M 55.952 39.13 c 0 0.969 -0.114 1.807 -0.34 2.518 c -0.226 0.706 -0.545 1.295 -0.957 1.761 c -0.41 0.466 -0.901 0.813 -1.472 1.039 c -0.571 0.226 -1.2 0.34 -1.887 0.34 c -0.694 0 -1.328 -0.114 -1.901 -0.34 c -0.573 -0.226 -1.064 -0.573 -1.474 -1.039 c -0.41 -0.466 -0.734 -1.055 -0.962 -1.761 c -0.231 -0.71 -0.342 -1.549 -0.342 -2.518 v -2.448 c 0 -0.962 0.114 -1.8 0.34 -2.511 c 0.226 -0.71 0.545 -1.3 0.957 -1.766 c 0.41 -0.466 0.901 -0.813 1.472 -1.039 c 0.566 -0.228 1.197 -0.342 1.891 -0.342 c 0.687 0 1.316 0.114 1.889 0.34 s 1.067 0.573 1.479 1.039 c 0.41 0.466 0.729 1.055 0.96 1.766 c 0.231 0.71 0.347 1.549 0.347 2.511 V 39.13 z M 52.849 36.289 c 0 -0.533 -0.037 -0.981 -0.109 -1.349 c -0.075 -0.361 -0.177 -0.659 -0.312 -0.887 c -0.135 -0.226 -0.3 -0.389 -0.494 -0.487 s -0.41 -0.147 -0.657 -0.147 c -0.245 0 -0.466 0.049 -0.659 0.147 s -0.356 0.261 -0.487 0.487 c -0.133 0.226 -0.233 0.524 -0.303 0.887 c -0.07 0.368 -0.105 0.815 -0.105 1.349 v 3.221 c 0 0.545 0.033 1.004 0.105 1.372 c 0.07 0.368 0.175 0.666 0.31 0.887 c 0.135 0.226 0.3 0.387 0.496 0.484 c 0.196 0.098 0.417 0.147 0.661 0.147 c 0.24 0 0.454 -0.049 0.648 -0.147 c 0.193 -0.098 0.359 -0.259 0.494 -0.484 c 0.135 -0.221 0.235 -0.519 0.307 -0.887 c 0.07 -0.368 0.107 -0.825 0.107 -1.372 v -3.221 H 52.849 z M 43.388 57.976 c 0 0.969 -0.114 1.807 -0.34 2.518 c -0.226 0.706 -0.545 1.295 -0.957 1.761 c -0.41 0.466 -0.901 0.813 -1.472 1.039 c -0.571 0.226 -1.2 0.34 -1.887 0.34 c -0.694 0 -1.328 -0.114 -1.901 -0.34 c -0.573 -0.226 -1.064 -0.573 -1.474 -1.039 c -0.41 -0.466 -0.734 -1.055 -0.962 -1.761 c -0.231 -0.71 -0.342 -1.549 -0.342 -2.518 v -2.448 c 0 -0.962 0.114 -1.8 0.34 -2.511 c 0.226 -0.71 0.545 -1.3 0.957 -1.766 c 0.41 -0.466 0.901 -0.813 1.472 -1.039 c 0.571 -0.226 1.202 -0.34 1.896 -0.34 c 0.687 0 1.316 0.114 1.889 0.34 c 0.573 0.226 1.067 0.573 1.479 1.039 c 0.41 0.466 0.729 1.055 0.96 1.766 c 0.231 0.71 0.347 1.549 0.347 2.511 v 2.448 H 43.388 z M 40.288 55.132 c 0 -0.533 -0.037 -0.981 -0.109 -1.349 c -0.075 -0.361 -0.177 -0.659 -0.312 -0.887 c -0.135 -0.226 -0.3 -0.389 -0.494 -0.487 s -0.41 -0.147 -0.657 -0.147 c -0.247 0 -0.466 0.049 -0.659 0.147 c -0.193 0.098 -0.356 0.261 -0.487 0.487 c -0.133 0.226 -0.233 0.524 -0.303 0.887 c -0.07 0.368 -0.105 0.815 -0.105 1.349 v 3.221 c 0 0.545 0.033 1.004 0.105 1.372 c 0.07 0.368 0.175 0.666 0.31 0.887 c 0.135 0.226 0.3 0.387 0.496 0.484 s 0.417 0.147 0.661 0.147 c 0.24 0 0.454 -0.049 0.648 -0.147 c 0.193 -0.098 0.359 -0.259 0.494 -0.484 c 0.135 -0.221 0.235 -0.519 0.307 -0.887 c 0.07 -0.368 0.107 -0.825 0.107 -1.372 v -3.221 H 40.288 z M 53.523 63.45 h -3.11 v -9.902 l -3.056 0.892 v -2.355 l 5.879 -2.033 h 0.284 V 63.45 H 53.523 z" style="stroke: none; stroke-width: 1; stroke-dasharray: none; stroke-linecap: butt; stroke-linejoin: miter; stroke-miterlimit: 10; fill: rgb(3,169,244); fill-rule: nonzero; opacity: 1;" transform=" matrix(1 0 0 1 0 0) " stroke-linecap="round" />
</g>
</svg>