<?xml version="1.0" encoding="UTF-8"?>
<!DOCTYPE svg PUBLIC "-//W3C//DTD SVG 1.1//EN" "http://www.w3.org/Graphics/SVG/1.1/DTD/svg11.dtd">
<svg xmlns="http://www.w3.org/2000/svg" version="1.1" width="720px" height="550px" style="shape-rendering:geometricPrecision; text-rendering:geometricPrecision; image-rendering:optimizeQuality; fill-rule:evenodd; clip-rule:evenodd" xmlns:xlink="http://www.w3.org/1999/xlink">
<g><path style="opacity:1" fill="#fefefe" d="M -0.5,-0.5 C 173.167,-0.5 346.833,-0.5 520.5,-0.5C 456.701,63.7988 392.701,127.965 328.5,192C 272.5,192.333 216.5,192.667 160.5,193C 108.272,245.062 56.2715,297.228 4.5,349.5C 3.83333,349.5 3.5,349.833 3.5,350.5C 2.95691,350.56 2.62358,350.893 2.5,351.5C 67.4966,352.5 132.497,352.833 197.5,352.5C 197.167,416.837 197.5,481.17 198.5,545.5C 199.107,545.376 199.44,545.043 199.5,544.5C 263.866,480.8 327.866,416.8 391.5,352.5C 447.164,351.667 502.83,351.167 558.5,351C 610.701,298.965 662.701,246.799 714.5,194.5C 715.167,194.5 715.5,194.167 715.5,193.5C 716.043,193.44 716.376,193.107 716.5,192.5C 651.837,191.5 587.17,191.167 522.5,191.5C 522.5,127.5 522.5,63.5 522.5,-0.5C 588.167,-0.5 653.833,-0.5 719.5,-0.5C 719.5,182.833 719.5,366.167 719.5,549.5C 479.5,549.5 239.5,549.5 -0.5,549.5C -0.5,366.167 -0.5,182.833 -0.5,-0.5 Z"/></g>
<g><path style="opacity:1" fill="#020202" d="M 520.5,-0.5 C 520.833,-0.5 521.167,-0.5 521.5,-0.5C 521.5,63.8333 521.5,128.167 521.5,192.5C 585.833,193.167 650.167,193.833 714.5,194.5C 662.701,246.799 610.701,298.965 558.5,351C 502.83,351.167 447.164,351.667 391.5,352.5C 327.866,416.8 263.866,480.8 199.5,544.5C 198.833,480.167 198.167,415.833 197.5,351.5C 133.167,350.833 68.8333,350.167 4.5,349.5C 56.2715,297.228 108.272,245.062 160.5,193C 216.5,192.667 272.5,192.333 328.5,192C 392.701,127.965 456.701,63.7988 520.5,-0.5 Z"/></g>
<g><path style="opacity:1" fill="#fcfcfc" d="M 480.5,96.5 C 481.498,128.329 481.832,160.329 481.5,192.5C 449.329,192.832 417.329,192.498 385.5,191.5C 416.833,159.5 448.5,127.833 480.5,96.5 Z"/></g>
<g><path style="opacity:1" fill="#666666" d="M 480.5,96.5 C 480.56,95.9569 480.893,95.6236 481.5,95.5C 482.83,127.997 482.83,160.331 481.5,192.5C 481.832,160.329 481.498,128.329 480.5,96.5 Z"/></g>
<g><path style="opacity:1" fill="#c5c5c5" d="M 521.5,-0.5 C 521.833,-0.5 522.167,-0.5 522.5,-0.5C 522.5,63.5 522.5,127.5 522.5,191.5C 587.17,191.167 651.837,191.5 716.5,192.5C 716.376,193.107 716.043,193.44 715.5,193.5C 651.002,192.501 586.335,192.168 521.5,192.5C 521.5,128.167 521.5,63.8333 521.5,-0.5 Z"/></g>
<g><path style="opacity:1" fill="#3c3c3c" d="M 385.5,191.5 C 417.329,192.498 449.329,192.832 481.5,192.5C 449.331,193.83 416.997,193.83 384.5,192.5C 384.624,191.893 384.957,191.56 385.5,191.5 Z"/></g>
<g><path style="opacity:1" fill="#1a1a1a" d="M 521.5,192.5 C 586.335,192.168 651.002,192.501 715.5,193.5C 715.5,194.167 715.167,194.5 714.5,194.5C 650.167,193.833 585.833,193.167 521.5,192.5 Z"/></g>
<g><path style="opacity:1" fill="#aeaeae" d="M 176.5,233.5 C 213.002,232.17 249.669,232.17 286.5,233.5C 286.376,234.107 286.043,234.44 285.5,234.5C 249.337,233.502 213.004,233.168 176.5,233.5 Z"/></g>
<g><path style="opacity:1" fill="#adadad" d="M 343.5,233.5 C 380.336,232.17 417.336,232.17 454.5,233.5C 454.376,234.107 454.043,234.44 453.5,234.5C 417.004,233.502 380.337,233.168 343.5,233.5 Z"/></g>
<g><path style="opacity:1" fill="#fdfdfd" d="M 176.5,233.5 C 213.004,233.168 249.337,233.502 285.5,234.5C 260.527,260.14 235.194,285.473 209.5,310.5C 172.996,310.832 136.663,310.498 100.5,309.5C 126.167,284.5 151.5,259.167 176.5,233.5 Z"/></g>
<g><path style="opacity:1" fill="#fdfdfd" d="M 343.5,233.5 C 380.337,233.168 417.004,233.502 453.5,234.5C 427.806,259.527 402.473,284.86 377.5,310.5C 340.663,310.832 303.996,310.498 267.5,309.5C 292.5,283.833 317.833,258.5 343.5,233.5 Z"/></g>
<g><path style="opacity:1" fill="#fcfcfc" d="M 541.5,310.5 C 505.663,310.832 469.996,310.498 434.5,309.5C 460.299,284.202 485.965,258.702 511.5,233C 547.5,232.333 583.5,232.333 619.5,233C 593.632,259.035 567.632,284.868 541.5,310.5 Z"/></g>
<g><path style="opacity:1" fill="#8e8e8e" d="M 100.5,309.5 C 136.663,310.498 172.996,310.832 209.5,310.5C 172.998,311.83 136.331,311.83 99.5,310.5C 99.6236,309.893 99.9569,309.56 100.5,309.5 Z"/></g>
<g><path style="opacity:1" fill="#8e8e8e" d="M 267.5,309.5 C 303.996,310.498 340.663,310.832 377.5,310.5C 340.664,311.83 303.664,311.83 266.5,310.5C 266.624,309.893 266.957,309.56 267.5,309.5 Z"/></g>
<g><path style="opacity:1" fill="#8e8e8e" d="M 434.5,309.5 C 469.996,310.498 505.663,310.832 541.5,310.5C 505.664,311.83 469.664,311.83 433.5,310.5C 433.624,309.893 433.957,309.56 434.5,309.5 Z"/></g>
<g><path style="opacity:1" fill="#313131" d="M 4.5,349.5 C 68.8333,350.167 133.167,350.833 197.5,351.5C 132.665,351.832 67.9979,351.499 3.5,350.5C 3.5,349.833 3.83333,349.5 4.5,349.5 Z"/></g>
<g><path style="opacity:1" fill="#585858" d="M 237.5,351.5 C 270.336,350.17 303.336,350.17 336.5,351.5C 336.376,352.107 336.043,352.44 335.5,352.5C 303.338,351.502 271.004,351.168 238.5,351.5C 238.167,351.5 237.833,351.5 237.5,351.5 Z"/></g>
<g><path style="opacity:1" fill="#ededed" d="M 3.5,350.5 C 67.9979,351.499 132.665,351.832 197.5,351.5C 197.5,351.833 197.5,352.167 197.5,352.5C 132.497,352.833 67.4966,352.5 2.5,351.5C 2.62358,350.893 2.95691,350.56 3.5,350.5 Z"/></g>
<g><path style="opacity:1" fill="#797979" d="M 197.5,351.5 C 198.167,415.833 198.833,480.167 199.5,544.5C 199.44,545.043 199.107,545.376 198.5,545.5C 197.5,481.17 197.167,416.837 197.5,352.5C 197.5,352.167 197.5,351.833 197.5,351.5 Z"/></g>
<g><path style="opacity:1" fill="#fdfdfd" d="M 238.5,351.5 C 271.004,351.168 303.338,351.502 335.5,352.5C 303.167,384.167 271.167,416.167 239.5,448.5C 238.502,416.338 238.168,384.004 238.5,351.5 Z"/></g>
<g><path style="opacity:1" fill="#d1d1d1" d="M 237.5,351.5 C 237.833,351.5 238.167,351.5 238.5,351.5C 238.168,384.004 238.502,416.338 239.5,448.5C 239.44,449.043 239.107,449.376 238.5,449.5C 237.5,416.84 237.167,384.173 237.5,351.5 Z"/></g>
</svg>
