<?xml version="1.0" standalone="no"?>
<!DOCTYPE svg PUBLIC "-//W3C//DTD SVG 20010904//EN"
 "http://www.w3.org/TR/2001/REC-SVG-20010904/DTD/svg10.dtd">
<svg version="1.0" xmlns="http://www.w3.org/2000/svg"
 width="731.000000pt" height="628.000000pt" viewBox="0 0 731.000000 628.000000"
 preserveAspectRatio="xMidYMid meet">

<g transform="translate(0.000000,628.000000) scale(0.100000,-0.100000)"
fill="#000000" stroke="none">
<path d="M4300 5175 l-965 -965 -835 0 -835 0 -788 -788 c-433 -433 -787 -790
-787 -795 0 -4 437 -7 970 -7 l970 0 1 -942 c1 -519 1 -955 1 -970 0 -16 2
-28 6 -28 4 0 444 436 977 970 l970 970 825 0 825 0 795 795 795 795 -975 2
-975 3 -5 963 -5 962 -965 -965z m570 -480 l0 -485 -480 0 c-264 0 -480 3
-480 7 0 7 951 963 958 963 1 0 2 -218 2 -485z m-1950 -887 c0 -2 -175 -180
-388 -396 l-387 -393 -542 1 c-299 0 -543 4 -543 8 0 4 174 181 387 394 l388
388 542 0 c299 0 543 -1 543 -2z m1290 -393 l-395 -395 -547 0 c-302 0 -548 3
-548 8 0 4 175 181 388 395 l388 387 555 0 554 0 -395 -395z m1650 0 l-396
-395 -532 0 c-292 0 -532 3 -532 7 0 5 174 182 387 395 l388 388 540 0 540 0
-395 -395z m-2450 -798 c0 -1 -220 -223 -490 -492 l-490 -490 0 493 0 492 490
0 c270 0 490 -1 490 -3z"/>
<path d="M3990 864 l0 -596 248 5 c283 6 353 17 477 77 186 89 284 267 284
515 0 288 -132 479 -384 554 -99 29 -221 41 -437 41 l-188 0 0 -596z m465 392
c147 -39 241 -134 280 -283 51 -197 -36 -393 -213 -476 -59 -27 -79 -31 -179
-35 l-113 -5 0 407 0 406 88 0 c48 0 110 -6 137 -14z"/>
<path d="M5250 865 l0 -595 350 0 350 0 0 95 0 95 -230 0 -230 0 -2 498 -3
497 -117 3 -118 3 0 -596z"/>
<path d="M6160 865 l0 -595 120 0 120 0 0 245 0 245 68 0 c74 0 106 -12 134
-51 10 -14 54 -117 98 -230 l78 -204 131 -3 c75 -1 131 1 131 7 0 19 -193 478
-216 514 -14 21 -36 43 -49 49 -35 16 -31 22 18 35 59 16 129 80 157 144 31
74 26 202 -11 274 -66 130 -189 164 -581 165 l-198 0 0 -595z m486 379 c58
-31 77 -63 77 -129 0 -105 -67 -153 -227 -162 l-96 -6 0 163 0 163 104 -5 c77
-3 113 -10 142 -24z"/>
</g>
</svg>
