<?xml version="1.0" encoding="UTF-8" standalone="no"?>
<!DOCTYPE svg PUBLIC "-//W3C//DTD SVG 1.1//EN" "http://www.w3.org/Graphics/SVG/1.1/DTD/svg11.dtd">
<svg width="100%" height="100%" viewBox="0 0 450 371" version="1.1" xmlns="http://www.w3.org/2000/svg" xmlns:xlink="http://www.w3.org/1999/xlink" xml:space="preserve" xmlns:serif="http://www.serif.com/" style="fill-rule:evenodd;clip-rule:evenodd;stroke-linejoin:round;stroke-miterlimit:2;">
    <g transform="matrix(4.16667,0,0,4.16667,0,0)">
        <path d="M78.206,29.532L78.206,0.404L49.12,29.532L24.16,29.532L0.382,53.313L29.66,53.315L29.66,82.52L58.878,53.305L83.62,53.305L107.382,29.532L78.206,29.532ZM72.232,14.866L72.232,29.549L57.549,29.549L72.232,14.866ZM14.819,47.311L26.58,35.535L43.071,35.535L31.303,47.311L14.819,47.311ZM35.59,68.196L35.59,53.304L50.448,53.304L35.59,68.196ZM56.475,47.311L39.799,47.311L51.559,35.535L68.239,35.535L56.475,47.311ZM81.177,47.311L64.934,47.311L76.694,35.535L92.945,35.535L81.177,47.311Z" style="fill:rgb(35,31,32);fill-rule:nonzero;"/>
        <path d="M63.838,70.8L58.98,70.8L58.98,88.559L63.838,88.559C69.281,88.559 74.091,86.727 74.091,79.68C74.091,72.635 69.281,70.8 63.838,70.8ZM64.525,85.76L62.543,85.76L62.543,73.6L64.525,73.6C67.5,73.6 70.377,75.814 70.377,79.68C70.377,83.547 67.5,85.76 64.525,85.76Z" style="fill:rgb(35,31,32);fill-rule:nonzero;"/>
        <path d="M77.863,70.8L81.426,70.8L81.426,85.76L88.32,85.76L88.32,88.559L77.863,88.559L77.863,70.8Z" style="fill:rgb(35,31,32);fill-rule:nonzero;"/>
        <path d="M101.944,81.613C101.588,80.827 101.028,79.858 100.06,79.782L100.06,79.731C102.324,79.426 103.726,77.696 103.726,75.61C103.726,70.674 99.169,70.8 95.352,70.8L91.511,70.8L91.511,88.559L95.075,88.559L95.075,81.183L96.219,81.183C97.718,81.183 98.176,81.69 98.687,83.012L100.824,88.559L104.792,88.559L101.944,81.613ZM96.247,78.382L95.075,78.382L95.075,73.6L96.247,73.6C98.025,73.6 100.011,73.78 100.011,75.916C100.011,78.127 98,78.382 96.247,78.382Z" style="fill:rgb(35,31,32);fill-rule:nonzero;"/>
    </g>
</svg>
