<?xml version="1.0" encoding="UTF-8" standalone="no"?>
<svg
   viewBox="0 0 455.54666 210.93333"
   height="210.93333"
   width="455.54666"
   xml:space="preserve"
   id="svg2"
   version="1.1"
   xmlns="http://www.w3.org/2000/svg"
   xmlns:svg="http://www.w3.org/2000/svg"
   xmlns:rdf="http://www.w3.org/1999/02/22-rdf-syntax-ns#"
   xmlns:cc="http://creativecommons.org/ns#"
   xmlns:dc="http://purl.org/dc/elements/1.1/"><metadata
     id="metadata8"><rdf:RDF><cc:Work
         rdf:about=""><dc:format>image/svg+xml</dc:format><dc:type
           rdf:resource="http://purl.org/dc/dcmitype/StillImage" /></cc:Work></rdf:RDF></metadata><defs
     id="defs6"><clipPath
       clipPathUnits="userSpaceOnUse"
       id="clipPath2"><rect
         style="fill:#e6e6e6;stroke-width:0.702701"
         id="rect2"
         width="250.10667"
         height="82.220947"
         x="46.921909"
         y="-127.20571"
         transform="scale(1,-1)" /></clipPath></defs><g
     transform="matrix(1.3333333,0,0,-1.3333333,0,216.67301)"
     id="g10"
     clip-path="url(#clipPath2)"><g
       transform="scale(0.1)"
       id="g12"><path
         id="path14"
         style="fill:#231f20;fill-opacity:1;fill-rule:nonzero;stroke:none"
         d="m 1642.55,897.746 h 31.79 v -158.48 h -31.79 v 158.48" /><path
         id="path16"
         style="fill:#231f20;fill-opacity:1;fill-rule:nonzero;stroke:none"
         d="m 1703.73,856.199 h 28.84 v -15.898 h 0.45 c 9.54,13.398 22.48,18.621 38.37,18.621 27.71,0 39.74,-19.531 39.74,-45.867 v -73.789 h -30.42 v 62.441 c 0,14.297 -0.24,33.602 -19.76,33.602 -22.02,0 -26.8,-23.836 -26.8,-38.829 v -57.214 h -30.42 v 116.933" /><path
         id="path18"
         style="fill:#231f20;fill-opacity:1;fill-rule:nonzero;stroke:none"
         d="m 1909.8,831.676 c -9.31,3.176 -16.12,4.992 -27.25,4.992 -8.17,0 -17.94,-2.949 -17.94,-12.941 0,-18.622 52.9,-6.805 52.9,-49.043 0,-27.246 -24.28,-38.145 -49.04,-38.145 -11.57,0 -23.38,2.043 -34.51,4.992 l 1.81,24.981 c 9.55,-4.766 19.54,-7.715 29.98,-7.715 7.72,0 19.98,2.949 19.98,14.297 0,22.929 -52.9,7.265 -52.9,49.5 0,25.207 22.02,36.328 45.86,36.328 14.3,0 23.62,-2.274 33.15,-4.317 l -2.04,-22.929" /><path
         id="path20"
         style="fill:#231f20;fill-opacity:1;fill-rule:nonzero;stroke:none"
         d="m 1948.36,833.941 h -22.48 v 22.258 h 22.48 v 23.383 l 30.42,9.762 v -33.145 h 27.02 v -22.258 h -27.02 v -54.492 c 0,-9.988 2.73,-19.297 14.31,-19.297 5.45,0 10.67,1.133 13.85,3.176 l 0.91,-24.062 c -6.36,-1.817 -13.39,-2.727 -22.48,-2.727 -23.84,0 -37.01,14.758 -37.01,37.922 v 59.48" /><path
         id="path22"
         style="fill:#231f20;fill-opacity:1;fill-rule:nonzero;stroke:none"
         d="m 2024.68,856.199 h 30.42 V 739.266 h -30.42 z m 0,50.399 h 30.42 v -29.063 h -30.42 v 29.063" /><path
         id="path24"
         style="fill:#231f20;fill-opacity:1;fill-rule:nonzero;stroke:none"
         d="m 2092.85,833.941 h -22.48 v 22.258 h 22.48 v 23.383 l 30.42,9.762 v -33.145 h 27.03 v -22.258 h -27.03 v -54.492 c 0,-9.988 2.73,-19.297 14.31,-19.297 5.45,0 10.67,1.133 13.85,3.176 l 0.91,-24.062 c -6.36,-1.817 -13.4,-2.727 -22.48,-2.727 -23.84,0 -37.01,14.758 -37.01,37.922 v 59.48" /><path
         id="path26"
         style="fill:#231f20;fill-opacity:1;fill-rule:nonzero;stroke:none"
         d="m 2274.2,739.266 h -28.84 v 15.898 h -0.44 c -9.31,-11.359 -22.49,-18.625 -38.37,-18.625 -27.71,0 -39.74,19.524 -39.74,45.871 v 73.789 h 30.42 v -62.441 c 0,-14.309 0.23,-33.606 19.76,-33.606 22.02,0 26.79,23.84 26.79,38.828 v 57.219 h 30.42 V 739.266" /><path
         id="path28"
         style="fill:#231f20;fill-opacity:1;fill-rule:nonzero;stroke:none"
         d="m 2311.86,833.941 h -22.47 v 22.258 h 22.47 v 23.383 l 30.43,9.762 v -33.145 h 27.02 v -22.258 h -27.02 v -54.492 c 0,-9.988 2.72,-19.297 14.31,-19.297 5.44,0 10.66,1.133 13.84,3.176 l 0.91,-24.062 c -6.36,-1.817 -13.4,-2.727 -22.48,-2.727 -23.84,0 -37.01,14.758 -37.01,37.922 v 59.48" /><path
         id="path30"
         style="fill:#231f20;fill-opacity:1;fill-rule:nonzero;stroke:none"
         d="m 2461.28,833.941 h -22.48 v 22.258 h 22.48 v 16.348 c 0,23.383 13.17,39.73 37.23,39.73 7.72,0 16.35,-1.136 22.25,-2.496 l -2.5,-25.203 c -2.72,1.59 -6.58,4.086 -13.16,4.086 -10.22,0 -13.4,-8.851 -13.4,-17.934 v -14.531 h 26.56 v -22.258 h -26.56 v -94.675 h -30.42 v 94.675" /><path
         id="path32"
         style="fill:#231f20;fill-opacity:1;fill-rule:nonzero;stroke:none"
         d="m 2624.35,903.875 v -26.34 h -26.34 v 26.34 z m -73.12,-26.34 v 26.34 h 26.34 v -26.34 z m 90.15,-138.269 h -28.84 v 15.898 h -0.46 c -9.3,-11.359 -22.48,-18.625 -38.37,-18.625 -27.7,0 -39.73,19.524 -39.73,45.871 v 73.789 h 30.43 v -62.441 c 0,-14.309 0.22,-33.606 19.74,-33.606 22.03,0 26.8,23.84 26.8,38.828 v 57.219 h 30.43 V 739.266" /><path
         id="path34"
         style="fill:#231f20;fill-opacity:1;fill-rule:nonzero;stroke:none"
         d="m 2669.65,856.199 h 27.02 v -26.562 h 0.45 c 1.37,10.898 13.85,29.285 32.01,29.285 2.96,0 6.14,0 9.32,-0.906 v -30.657 c -2.72,1.594 -8.17,2.5 -13.62,2.5 -24.76,0 -24.76,-30.879 -24.76,-47.683 v -42.91 h -30.42 v 116.933" /><path
         id="path36"
         style="fill:#231f20;fill-opacity:1;fill-rule:nonzero;stroke:none"
         d="m 1645.28,634.148 h 31.78 V 566.02 l 57.22,68.128 h 39.05 l -65.16,-74.707 67.89,-83.781 h -41.55 l -56.99,73.57 h -0.46 v -73.57 h -31.78 v 158.488" /><path
         id="path38"
         style="fill:#231f20;fill-opacity:1;fill-rule:nonzero;stroke:none"
         d="M 1793.22,634.148 H 1825 V 475.66 h -31.78 v 158.488" /><path
         id="path40"
         style="fill:#231f20;fill-opacity:1;fill-rule:nonzero;stroke:none"
         d="m 1852,524.25 v 24.98 h 59.71 V 524.25 H 1852" /><path
         id="path42"
         style="fill:#231f20;fill-opacity:1;fill-rule:nonzero;stroke:none"
         d="m 2018.52,605.086 c -9.99,4.305 -21.11,6.805 -32.24,6.805 -10.9,0 -24.98,-4.766 -24.98,-22.02 0,-27.48 69.48,-15.902 69.48,-69.019 0,-34.75 -27.48,-47.911 -59.49,-47.911 -17.25,0 -24.97,2.258 -40.64,6.129 l 2.96,28.602 c 10.9,-5.902 23.38,-9.75 35.87,-9.75 12.03,0 28.15,6.117 28.15,20.43 0,30.187 -69.47,17.707 -69.47,70.152 0,35.418 27.47,48.359 55.4,48.359 13.62,0 26.34,-1.816 37.91,-5.675 l -2.95,-26.102" /><path
         id="path44"
         style="fill:#231f20;fill-opacity:1;fill-rule:nonzero;stroke:none"
         d="m 2053.95,592.594 h 30.43 V 475.66 h -30.43 z m 0,50.402 h 30.43 v -29.062 h -30.43 v 29.062" /><path
         id="path46"
         style="fill:#231f20;fill-opacity:1;fill-rule:nonzero;stroke:none"
         d="m 2189.37,567.391 c -5.45,2.5 -11.35,4.32 -20.66,4.32 -18.84,0 -30.87,-14.992 -30.87,-37.02 0,-21.57 10.21,-38.14 31.55,-38.14 8.63,0 18.16,3.179 23.39,5.449 l 1.36,-25.211 c -8.85,-2.719 -17.94,-3.848 -30.43,-3.848 -38.36,0 -57.66,26.11 -57.66,61.75 0,33.829 19.98,60.629 56.53,60.629 12.26,0 21.11,-1.367 29.51,-3.867 l -2.72,-24.062" /><path
         id="path48"
         style="fill:#231f20;fill-opacity:1;fill-rule:nonzero;stroke:none"
         d="m 2212.01,645.945 h 30.43 v -69.246 h 0.45 c 7.73,11.356 20.89,18.621 36.79,18.621 27.7,0 39.74,-19.531 39.74,-45.871 V 475.66 h -30.43 v 62.442 c 0,14.308 -0.23,33.609 -19.76,33.609 -22.02,0 -26.79,-23.852 -26.79,-38.832 V 475.66 h -30.43 v 170.285" /><path
         id="path50"
         style="fill:#231f20;fill-opacity:1;fill-rule:nonzero;stroke:none"
         d="m 2421.19,545.59 c -0.9,14.762 -7.72,27.469 -24.74,27.469 -17.03,0 -25.66,-11.797 -27.02,-27.469 z m 20.44,-63.352 c -11.13,-6.117 -23.84,-9.297 -40.19,-9.297 -38.59,0 -61.08,22.239 -61.08,60.618 0,33.832 17.94,61.761 54.27,61.761 43.37,0 55.63,-29.75 55.63,-70.621 h -80.83 c 1.36,-18.84 14.53,-29.519 33.38,-29.519 14.75,0 27.47,5.449 38.82,11.82 v -24.762" /><path
         id="path52"
         style="fill:#231f20;fill-opacity:1;fill-rule:nonzero;stroke:none"
         d="m 2471.89,592.594 h 27.02 V 566.02 h 0.45 c 1.37,10.902 13.86,29.3 32.02,29.3 2.95,0 6.12,0 9.31,-0.91 v -30.648 c -2.73,1.59 -8.18,2.5 -13.63,2.5 -24.74,0 -24.74,-30.883 -24.74,-47.692 v -42.91 h -30.43 v 116.934" /><path
         id="path54"
         style="fill:#231f20;fill-opacity:1;fill-rule:nonzero;stroke:none"
         d="m 2555.72,645.945 h 30.43 v -69.246 h 0.44 c 7.73,11.356 20.89,18.621 36.79,18.621 27.7,0 39.74,-19.531 39.74,-45.871 V 475.66 h -30.43 v 62.442 c 0,14.308 -0.23,33.609 -19.76,33.609 -22.02,0 -26.78,-23.852 -26.78,-38.832 V 475.66 h -30.43 v 170.285" /><path
         id="path56"
         style="fill:#231f20;fill-opacity:1;fill-rule:nonzero;stroke:none"
         d="m 2764.9,545.59 c -0.91,14.762 -7.72,27.469 -24.75,27.469 -17.03,0 -25.66,-11.797 -27.02,-27.469 z m 20.43,-63.352 c -11.13,-6.117 -23.84,-9.297 -40.19,-9.297 -38.59,0 -61.07,22.239 -61.07,60.618 0,33.832 17.94,61.761 54.26,61.761 43.36,0 55.63,-29.75 55.63,-70.621 h -80.83 c 1.36,-18.84 14.53,-29.519 33.38,-29.519 14.75,0 27.47,5.449 38.82,11.82 v -24.762" /><path
         id="path58"
         style="fill:#231f20;fill-opacity:1;fill-rule:nonzero;stroke:none"
         d="m 2815.86,592.594 h 30.42 V 475.66 h -30.42 z m 0,50.402 h 30.42 v -29.062 h -30.42 v 29.062" /><path
         id="path60"
         style="fill:#231f20;fill-opacity:1;fill-rule:nonzero;stroke:none"
         d="m 2884.03,570.34 h -22.47 v 22.254 h 22.47 v 23.39 l 30.43,9.754 v -33.144 h 27.02 V 570.34 h -27.02 v -54.488 c 0,-9.993 2.72,-19.301 14.3,-19.301 5.45,0 10.67,1.129 13.85,3.179 l 0.91,-24.07 c -6.36,-1.82 -13.4,-2.719 -22.48,-2.719 -23.84,0 -37.01,14.75 -37.01,37.918 v 59.481" /><path
         id="path62"
         style="fill:#231f20;fill-opacity:1;fill-rule:nonzero;stroke:none"
         d="m 1196.62,846.301 h -144.94 l 104.94,105.082 h 145.01 z m -220.417,0 H 827.395 L 932.336,951.383 H 1081.17 Z M 789.844,659.953 v 132.879 h 132.582 z m -185.34,186.348 104.941,105.082 h 147.16 L 751.586,846.301 Z M 1116.8,1135.82 V 1004.8 H 985.785 Z m 53.31,-130.86 v 259.91 L 910.574,1004.96 H 687.855 L 475.676,792.75 736.934,792.73 V 532.141 L 997.645,792.82 h 220.775 l 212.03,212.14 h -260.34" /><path
         id="path64"
         style="fill:#231f20;fill-opacity:1;fill-rule:nonzero;stroke:none"
         d="m 1320.81,566.559 h 10.47 c 15.65,0 33.6,2.281 33.6,22.031 0,19.062 -17.73,20.683 -33.6,20.683 h -10.47 z m -31.82,67.699 h 34.3 c 34.07,0 74.77,1.121 74.77,-42.934 0,-18.644 -12.52,-34.086 -32.74,-36.804 v -0.45 c 8.64,-0.691 13.64,-9.332 16.83,-16.351 l 25.42,-62.028 h -35.43 l -19.08,49.528 c -4.56,11.801 -8.65,16.332 -22.03,16.332 h -10.22 v -65.86 h -31.82 z m -121.86,0 h 31.82 V 500.691 h 61.54 v -25 h -93.36 z M 1030.36,500.691 h 17.69 c 26.56,0 52.24,19.75 52.24,54.278 0,34.523 -25.68,54.304 -52.24,54.304 h -17.69 z m -31.825,133.567 h 43.385 c 48.59,0 91.54,-16.391 91.54,-79.289 0,-62.918 -42.95,-79.278 -91.54,-79.278 h -43.385 v 158.567" /></g></g></svg>
