<?xml version="1.0" encoding="UTF-8" standalone="no"?>
<!DOCTYPE svg PUBLIC "-//W3C//DTD SVG 1.1//EN" "http://www.w3.org/Graphics/SVG/1.1/DTD/svg11.dtd">
<svg width="100%" height="100%" viewBox="0 0 1324 350" version="1.1" xmlns="http://www.w3.org/2000/svg" xmlns:xlink="http://www.w3.org/1999/xlink" xml:space="preserve" xmlns:serif="http://www.serif.com/" style="fill-rule:evenodd;clip-rule:evenodd;stroke-linejoin:round;stroke-miterlimit:2;">
    <g transform="matrix(1,0,0,1,-198.196,-135.471)">
        <g transform="matrix(4.16667,0,0,4.16667,0,0)">
            <rect x="164.255" y="69.226" width="3.179" height="15.848" style="fill:rgb(35,31,32);fill-rule:nonzero;"/>
            <path d="M170.373,73.381L173.257,73.381L173.257,74.97L173.302,74.97C174.256,73.631 175.55,73.108 177.139,73.108C179.91,73.108 181.113,75.061 181.113,77.695L181.113,85.074L178.07,85.074L178.07,78.83C178.07,77.4 178.047,75.469 176.095,75.469C173.892,75.469 173.415,77.853 173.415,79.352L173.415,85.074L170.373,85.074L170.373,73.381Z" style="fill:rgb(35,31,32);fill-rule:nonzero;"/>
            <path d="M190.98,75.833C190.049,75.515 189.368,75.334 188.255,75.334C187.438,75.334 186.461,75.629 186.461,76.628C186.461,78.49 191.751,77.308 191.751,81.532C191.751,84.257 189.322,85.346 186.847,85.346C185.689,85.346 184.509,85.142 183.396,84.847L183.578,82.349C184.532,82.826 185.531,83.121 186.575,83.121C187.347,83.121 188.573,82.826 188.573,81.691C188.573,79.398 183.283,80.965 183.283,76.741C183.283,74.22 185.485,73.108 187.869,73.108C189.299,73.108 190.23,73.336 191.184,73.54L190.98,75.833Z" style="fill:rgb(35,31,32);fill-rule:nonzero;"/>
            <path d="M194.836,75.606L192.588,75.606L192.588,73.381L194.836,73.381L194.836,71.042L197.878,70.066L197.878,73.381L200.58,73.381L200.58,75.606L197.878,75.606L197.878,81.055C197.878,82.054 198.151,82.985 199.309,82.985C199.854,82.985 200.376,82.872 200.694,82.668L200.785,85.074C200.149,85.256 199.445,85.346 198.537,85.346C196.153,85.346 194.836,83.871 194.836,81.554L194.836,75.606Z" style="fill:rgb(35,31,32);fill-rule:nonzero;"/>
            <path d="M202.468,73.381L205.51,73.381L205.51,85.074L202.468,85.074L202.468,73.381ZM202.468,68.341L205.51,68.341L205.51,71.247L202.468,71.247L202.468,68.341Z" style="fill:rgb(35,31,32);fill-rule:nonzero;"/>
            <path d="M209.285,75.606L207.037,75.606L207.037,73.381L209.285,73.381L209.285,71.042L212.328,70.066L212.328,73.381L215.029,73.381L215.029,75.606L212.328,75.606L212.328,81.055C212.328,82.054 212.6,82.985 213.757,82.985C214.302,82.985 214.825,82.872 215.143,82.668L215.234,85.074C214.598,85.256 213.894,85.346 212.986,85.346C210.602,85.346 209.285,83.871 209.285,81.554L209.285,75.606Z" style="fill:rgb(35,31,32);fill-rule:nonzero;"/>
            <path d="M227.42,85.074L224.537,85.074L224.537,83.484L224.492,83.484C223.56,84.62 222.244,85.346 220.654,85.346C217.884,85.346 216.681,83.394 216.681,80.76L216.681,73.381L219.723,73.381L219.723,79.625C219.723,81.055 219.746,82.985 221.699,82.985C223.901,82.985 224.377,80.601 224.377,79.102L224.377,73.381L227.42,73.381L227.42,85.074Z" style="fill:rgb(35,31,32);fill-rule:nonzero;"/>
            <path d="M231.186,75.606L228.938,75.606L228.938,73.381L231.186,73.381L231.186,71.042L234.229,70.066L234.229,73.381L236.931,73.381L236.931,75.606L234.229,75.606L234.229,81.055C234.229,82.054 234.501,82.985 235.66,82.985C236.204,82.985 236.726,82.872 237.044,82.668L237.135,85.074C236.499,85.256 235.795,85.346 234.887,85.346C232.503,85.346 231.186,83.871 231.186,81.554L231.186,75.606Z" style="fill:rgb(35,31,32);fill-rule:nonzero;"/>
            <path d="M245.986,78.081C245.895,76.605 245.214,75.334 243.511,75.334C241.808,75.334 240.945,76.514 240.809,78.081L245.986,78.081ZM248.029,84.416C246.916,85.029 245.645,85.346 244.01,85.346C240.151,85.346 237.903,83.121 237.903,79.284C237.903,75.901 239.697,73.108 243.329,73.108C247.665,73.108 248.892,76.083 248.892,80.17L240.809,80.17C240.945,82.054 242.262,83.121 244.147,83.121C245.622,83.121 246.894,82.576 248.029,81.941L248.029,84.416Z" style="fill:rgb(35,31,32);fill-rule:nonzero;"/>
            <path d="M258.385,75.606L256.138,75.606L256.138,73.381L258.385,73.381L258.385,71.746C258.385,69.407 259.703,67.773 262.109,67.773C262.881,67.773 263.744,67.886 264.334,68.022L264.084,70.543C263.812,70.384 263.426,70.134 262.768,70.134C261.746,70.134 261.428,71.019 261.428,71.928L261.428,73.381L264.084,73.381L264.084,75.606L261.428,75.606L261.428,85.074L258.385,85.074L258.385,75.606Z" style="fill:rgb(35,31,32);fill-rule:nonzero;"/>
            <path d="M271.003,82.985C273.342,82.985 273.955,80.896 273.955,78.943C273.955,77.15 273.001,75.469 271.003,75.469C269.029,75.469 268.075,77.195 268.075,78.943C268.075,80.874 268.688,82.985 271.003,82.985ZM271.003,73.108C274.478,73.108 277.134,75.447 277.134,79.306C277.134,82.668 274.886,85.346 271.003,85.346C267.144,85.346 264.896,82.668 264.896,79.306C264.896,75.447 267.552,73.108 271.003,73.108Z" style="fill:rgb(35,31,32);fill-rule:nonzero;"/>
            <path d="M279.272,73.381L281.974,73.381L281.974,76.037L282.019,76.037C282.156,74.947 283.404,73.108 285.22,73.108C285.516,73.108 285.833,73.108 286.152,73.199L286.152,76.264C285.879,76.105 285.334,76.014 284.789,76.014C282.314,76.014 282.314,79.102 282.314,80.783L282.314,85.074L279.272,85.074L279.272,73.381Z" style="fill:rgb(35,31,32);fill-rule:nonzero;"/>
            <path d="M300.593,72.404L300.547,72.404L298.254,78.943L302.886,78.943L300.593,72.404ZM298.844,69.226L302.432,69.226L308.653,85.074L305.134,85.074L303.771,81.441L297.346,81.441L295.96,85.074L292.668,85.074L298.844,69.226Z" style="fill:rgb(35,31,32);fill-rule:nonzero;"/>
            <rect x="310.369" y="69.226" width="3.178" height="15.848" style="fill:rgb(35,31,32);fill-rule:nonzero;"/>
            <path d="M173.042,98.492C172.043,98.061 170.931,97.811 169.818,97.811C168.728,97.811 167.321,98.288 167.321,100.013C167.321,102.761 174.268,101.603 174.268,106.915C174.268,110.39 171.521,111.706 168.32,111.706C166.594,111.706 165.822,111.48 164.255,111.093L164.551,108.233C165.641,108.823 166.889,109.208 168.138,109.208C169.341,109.208 170.954,108.596 170.954,107.165C170.954,104.146 164.006,105.394 164.006,100.15C164.006,96.608 166.753,95.314 169.546,95.314C170.908,95.314 172.18,95.496 173.337,95.882L173.042,98.492Z" style="fill:rgb(35,31,32);fill-rule:nonzero;"/>
            <path d="M180.716,109.482C181.647,109.482 182.373,109.073 182.85,108.437C183.35,107.779 183.486,106.939 183.486,106.031L182.169,106.031C180.807,106.031 178.786,106.257 178.786,108.051C178.786,109.05 179.626,109.482 180.716,109.482ZM177.151,100.354C178.332,99.809 179.921,99.469 181.215,99.469C184.78,99.469 186.256,100.945 186.256,104.396L186.256,105.894C186.256,107.075 186.279,107.96 186.301,108.823C186.324,109.708 186.37,110.526 186.438,111.434L183.758,111.434C183.645,110.821 183.645,110.049 183.622,109.686L183.577,109.686C182.873,110.98 181.352,111.706 179.967,111.706C177.901,111.706 175.88,110.457 175.88,108.233C175.88,106.484 176.72,105.462 177.878,104.895C179.036,104.327 180.535,104.214 181.806,104.214L183.486,104.214C183.486,102.329 182.646,101.694 180.852,101.694C179.558,101.694 178.264,102.193 177.242,102.965L177.151,100.354Z" style="fill:rgb(35,31,32);fill-rule:nonzero;"/>
            <path d="M189.892,101.966L187.645,101.966L187.645,99.741L189.892,99.741L189.892,98.106C189.892,95.767 191.209,94.133 193.616,94.133C194.388,94.133 195.251,94.247 195.841,94.383L195.591,96.903C195.319,96.744 194.933,96.494 194.275,96.494C193.253,96.494 192.935,97.38 192.935,98.288L192.935,99.741L195.591,99.741L195.591,101.966L192.935,101.966L192.935,111.434L189.892,111.434L189.892,101.966Z" style="fill:rgb(35,31,32);fill-rule:nonzero;"/>
            <path d="M204.542,104.441C204.452,102.965 203.77,101.694 202.068,101.694C200.365,101.694 199.502,102.874 199.366,104.441L204.542,104.441ZM206.586,110.776C205.473,111.388 204.202,111.706 202.567,111.706C198.707,111.706 196.459,109.482 196.459,105.644C196.459,102.261 198.253,99.469 201.886,99.469C206.223,99.469 207.449,102.443 207.449,106.53L199.366,106.53C199.502,108.414 200.819,109.482 202.704,109.482C204.179,109.482 205.451,108.937 206.586,108.3L206.586,110.776Z" style="fill:rgb(35,31,32);fill-rule:nonzero;"/>
            <path d="M210.508,101.966L208.26,101.966L208.26,99.741L210.508,99.741L210.508,97.402L213.551,96.427L213.551,99.741L216.252,99.741L216.252,101.966L213.551,101.966L213.551,107.415C213.551,108.414 213.824,109.345 214.981,109.345C215.526,109.345 216.048,109.232 216.367,109.027L216.457,111.434C215.822,111.616 215.118,111.706 214.209,111.706C211.826,111.706 210.508,110.231 210.508,107.914L210.508,101.966Z" style="fill:rgb(35,31,32);fill-rule:nonzero;"/>
            <path d="M223.387,108.278L223.433,108.278L226.248,99.741L229.336,99.741L224.954,111.343C223.978,113.931 223.274,116.474 220.095,116.474C219.369,116.474 218.642,116.361 217.938,116.157L218.142,113.908C218.529,114.045 218.959,114.113 219.709,114.113C220.935,114.113 221.684,113.273 221.684,112.025L217.211,99.741L220.572,99.741L223.387,108.278Z" style="fill:rgb(35,31,32);fill-rule:nonzero;"/>
            <path d="M241.236,109.482C242.167,109.482 242.894,109.073 243.371,108.437C243.87,107.779 244.006,106.939 244.006,106.031L242.689,106.031C241.327,106.031 239.306,106.257 239.306,108.051C239.306,109.05 240.146,109.482 241.236,109.482ZM237.671,100.354C238.852,99.809 240.441,99.469 241.736,99.469C245.3,99.469 246.776,100.945 246.776,104.396L246.776,105.894C246.776,107.075 246.798,107.96 246.822,108.823C246.844,109.708 246.89,110.526 246.957,111.434L244.279,111.434C244.165,110.821 244.165,110.049 244.142,109.686L244.097,109.686C243.393,110.98 241.871,111.706 240.487,111.706C238.42,111.706 236.4,110.457 236.4,108.233C236.4,106.484 237.24,105.462 238.398,104.895C239.556,104.327 241.054,104.214 242.326,104.214L244.006,104.214C244.006,102.329 243.165,101.694 241.372,101.694C240.078,101.694 238.784,102.193 237.762,102.965L237.671,100.354Z" style="fill:rgb(35,31,32);fill-rule:nonzero;"/>
            <path d="M249.482,99.741L252.366,99.741L252.366,101.33L252.412,101.33C253.365,99.991 254.659,99.469 256.247,99.469C259.018,99.469 260.221,101.421 260.221,104.055L260.221,111.434L257.178,111.434L257.178,105.19C257.178,103.759 257.157,101.829 255.204,101.829C253.001,101.829 252.525,104.214 252.525,105.712L252.525,111.434L249.482,111.434L249.482,99.741Z" style="fill:rgb(35,31,32);fill-rule:nonzero;"/>
            <path d="M268.099,109.345C270.121,109.345 270.779,107.21 270.779,105.553C270.779,103.918 270.006,101.829 268.054,101.829C266.079,101.829 265.534,103.987 265.534,105.553C265.534,107.165 266.101,109.345 268.099,109.345ZM270.892,110.117L270.847,110.117C269.939,111.252 268.69,111.706 267.259,111.706C263.671,111.706 262.355,108.755 262.355,105.553C262.355,102.329 263.671,99.469 267.259,99.469C268.781,99.469 269.847,99.991 270.755,101.103L270.801,101.103L270.801,94.406L273.843,94.406L273.843,111.434L270.892,111.434L270.892,110.117Z" style="fill:rgb(35,31,32);fill-rule:nonzero;"/>
            <path d="M291.759,98.492C290.76,98.061 289.648,97.811 288.535,97.811C287.445,97.811 286.038,98.288 286.038,100.013C286.038,102.761 292.986,101.603 292.986,106.915C292.986,110.39 290.238,111.706 287.037,111.706C285.311,111.706 284.538,111.48 282.972,111.093L283.267,108.233C284.357,108.823 285.606,109.208 286.855,109.208C288.058,109.208 289.67,108.596 289.67,107.165C289.67,104.146 282.722,105.394 282.722,100.15C282.722,96.608 285.47,95.314 288.263,95.314C289.624,95.314 290.896,95.496 292.054,95.882L291.759,98.492Z" style="fill:rgb(35,31,32);fill-rule:nonzero;"/>
            <path d="M302.68,104.441C302.589,102.965 301.908,101.694 300.205,101.694C298.502,101.694 297.64,102.874 297.503,104.441L302.68,104.441ZM304.724,110.776C303.611,111.388 302.339,111.706 300.704,111.706C296.845,111.706 294.597,109.482 294.597,105.644C294.597,102.261 296.391,99.469 300.024,99.469C304.361,99.469 305.586,102.443 305.586,106.53L297.503,106.53C297.64,108.414 298.956,109.482 300.841,109.482C302.317,109.482 303.588,108.937 304.724,108.3L304.724,110.776Z" style="fill:rgb(35,31,32);fill-rule:nonzero;"/>
            <path d="M315.37,102.261C314.825,102.011 314.234,101.829 313.303,101.829C311.418,101.829 310.215,103.328 310.215,105.531C310.215,107.688 311.237,109.345 313.371,109.345C314.234,109.345 315.188,109.027 315.71,108.8L315.846,111.321C314.96,111.593 314.052,111.706 312.804,111.706C308.966,111.706 307.037,109.095 307.037,105.531C307.037,102.148 309.035,99.469 312.69,99.469C313.916,99.469 314.802,99.605 315.642,99.855L315.37,102.261Z" style="fill:rgb(35,31,32);fill-rule:nonzero;"/>
            <path d="M328.224,111.434L325.34,111.434L325.34,109.845L325.294,109.845C324.364,110.98 323.046,111.706 321.457,111.706C318.687,111.706 317.484,109.753 317.484,107.12L317.484,99.741L320.527,99.741L320.527,105.985C320.527,107.415 320.549,109.345 322.501,109.345C324.704,109.345 325.181,106.961 325.181,105.462L325.181,99.741L328.224,99.741L328.224,111.434Z" style="fill:rgb(35,31,32);fill-rule:nonzero;"/>
            <path d="M331.052,99.741L333.754,99.741L333.754,102.398L333.799,102.398C333.936,101.308 335.185,99.469 337.001,99.469C337.296,99.469 337.614,99.469 337.932,99.559L337.932,102.624C337.66,102.465 337.115,102.374 336.57,102.374C334.095,102.374 334.095,105.462 334.095,107.143L334.095,111.434L331.052,111.434L331.052,99.741Z" style="fill:rgb(35,31,32);fill-rule:nonzero;"/>
            <path d="M339.469,99.741L342.511,99.741L342.511,111.434L339.469,111.434L339.469,99.741ZM339.469,94.701L342.511,94.701L342.511,97.607L339.469,97.607L339.469,94.701Z" style="fill:rgb(35,31,32);fill-rule:nonzero;"/>
            <path d="M346.286,101.966L344.038,101.966L344.038,99.741L346.286,99.741L346.286,97.402L349.329,96.427L349.329,99.741L352.031,99.741L352.031,101.966L349.329,101.966L349.329,107.415C349.329,108.414 349.601,109.345 350.759,109.345C351.304,109.345 351.826,109.232 352.144,109.027L352.235,111.434C351.599,111.616 350.895,111.706 349.987,111.706C347.603,111.706 346.286,110.231 346.286,107.914L346.286,101.966Z" style="fill:rgb(35,31,32);fill-rule:nonzero;"/>
            <path d="M359.165,108.278L359.21,108.278L362.026,99.741L365.114,99.741L360.732,111.343C359.755,113.931 359.052,116.474 355.872,116.474C355.146,116.474 354.419,116.361 353.716,116.157L353.92,113.908C354.306,114.045 354.738,114.113 355.487,114.113C356.713,114.113 357.462,113.273 357.462,112.025L352.99,99.741L356.35,99.741L359.165,108.278Z" style="fill:rgb(35,31,32);fill-rule:nonzero;"/>
            <path d="M119.662,74.37L105.168,74.37L115.662,63.862L130.162,63.862L119.662,74.37ZM97.62,74.37L82.739,74.37L93.233,63.862L108.117,63.862L97.62,74.37ZM78.984,93.005L78.984,79.717L92.242,79.717L78.984,93.005ZM60.45,74.37L70.944,63.862L85.66,63.862L75.158,74.37L60.45,74.37ZM111.68,45.418L111.68,58.52L98.578,58.52L111.68,45.418ZM117.011,58.504L117.011,32.513L91.057,58.504L68.785,58.504L47.567,79.725L73.693,79.727L73.693,105.786L99.764,79.718L121.842,79.718L143.045,58.504L117.011,58.504Z" style="fill:rgb(35,31,32);fill-rule:nonzero;"/>
            <path d="M132.081,102.344L133.128,102.344C134.693,102.344 136.488,102.116 136.488,100.141C136.488,98.235 134.715,98.073 133.128,98.073L132.081,98.073L132.081,102.344ZM128.899,95.575L132.329,95.575C135.736,95.575 139.806,95.463 139.806,99.868C139.806,101.732 138.554,103.276 136.532,103.548L136.532,103.593C137.396,103.662 137.896,104.526 138.215,105.228L140.757,111.431L137.214,111.431L135.306,106.478C134.85,105.298 134.441,104.845 133.103,104.845L132.081,104.845L132.081,111.431L128.899,111.431L128.899,95.575ZM116.713,95.575L119.895,95.575L119.895,108.931L126.049,108.931L126.049,111.431L116.713,111.431L116.713,95.575ZM103.036,108.931L104.805,108.931C107.461,108.931 110.029,106.956 110.029,103.503C110.029,100.051 107.461,98.073 104.805,98.073L103.036,98.073L103.036,108.931ZM99.853,95.575L104.192,95.575C109.051,95.575 113.346,97.214 113.346,103.503C113.346,109.795 109.051,111.431 104.192,111.431L99.853,111.431L99.853,95.575Z" style="fill:rgb(35,31,32);fill-rule:nonzero;"/>
        </g>
    </g>
</svg>
