<?xml version="1.0" encoding="UTF-8" standalone="no"?>
<!DOCTYPE svg PUBLIC "-//W3C//DTD SVG 1.1//EN" "http://www.w3.org/Graphics/SVG/1.1/DTD/svg11.dtd">
<svg width="100%" height="100%" viewBox="0 0 452 145" version="1.1" xmlns="http://www.w3.org/2000/svg" xmlns:xlink="http://www.w3.org/1999/xlink" xml:space="preserve" xmlns:serif="http://www.serif.com/" style="fill-rule:evenodd;clip-rule:evenodd;stroke-linejoin:round;stroke-miterlimit:2;">
    <g transform="matrix(1,0,0,1,-1.95686,-33.0024)">
        <g transform="matrix(1.83007,-3.91874e-32,-3.91874e-32,-1.83007,-85.0952,264.483)">
            <g id="g12" transform="matrix(0.1,0,0,0.1,0,0)">
                <path id="path14" d="M1642.55,897.746L1674.34,897.746L1674.34,739.266L1642.55,739.266L1642.55,897.746" style="fill:rgb(35,31,32);fill-rule:nonzero;"/>
                <path id="path16" d="M1703.73,856.199L1732.57,856.199L1732.57,840.301L1733.02,840.301C1742.56,853.699 1755.5,858.922 1771.39,858.922C1799.1,858.922 1811.13,839.391 1811.13,813.055L1811.13,739.266L1780.71,739.266L1780.71,801.707C1780.71,816.004 1780.47,835.309 1760.95,835.309C1738.93,835.309 1734.15,811.473 1734.15,796.48L1734.15,739.266L1703.73,739.266L1703.73,856.199" style="fill:rgb(35,31,32);fill-rule:nonzero;"/>
                <path id="path18" d="M1909.8,831.676C1900.49,834.852 1893.68,836.668 1882.55,836.668C1874.38,836.668 1864.61,833.719 1864.61,823.727C1864.61,805.105 1917.51,816.922 1917.51,774.684C1917.51,747.438 1893.23,736.539 1868.47,736.539C1856.9,736.539 1845.09,738.582 1833.96,741.531L1835.77,766.512C1845.32,761.746 1855.31,758.797 1865.75,758.797C1873.47,758.797 1885.73,761.746 1885.73,773.094C1885.73,796.023 1832.83,780.359 1832.83,822.594C1832.83,847.801 1854.85,858.922 1878.69,858.922C1892.99,858.922 1902.31,856.648 1911.84,854.605L1909.8,831.676" style="fill:rgb(35,31,32);fill-rule:nonzero;"/>
                <path id="path20" d="M1948.36,833.941L1925.88,833.941L1925.88,856.199L1948.36,856.199L1948.36,879.582L1978.78,889.344L1978.78,856.199L2005.8,856.199L2005.8,833.941L1978.78,833.941L1978.78,779.449C1978.78,769.461 1981.51,760.152 1993.09,760.152C1998.54,760.152 2003.76,761.285 2006.94,763.328L2007.85,739.266C2001.49,737.449 1994.46,736.539 1985.37,736.539C1961.53,736.539 1948.36,751.297 1948.36,774.461L1948.36,833.941" style="fill:rgb(35,31,32);fill-rule:nonzero;"/>
                <path id="path22" d="M2024.68,856.199L2055.1,856.199L2055.1,739.266L2024.68,739.266L2024.68,856.199ZM2024.68,906.598L2055.1,906.598L2055.1,877.535L2024.68,877.535L2024.68,906.598" style="fill:rgb(35,31,32);fill-rule:nonzero;"/>
                <path id="path24" d="M2092.85,833.941L2070.37,833.941L2070.37,856.199L2092.85,856.199L2092.85,879.582L2123.27,889.344L2123.27,856.199L2150.3,856.199L2150.3,833.941L2123.27,833.941L2123.27,779.449C2123.27,769.461 2126,760.152 2137.58,760.152C2143.03,760.152 2148.25,761.285 2151.43,763.328L2152.34,739.266C2145.98,737.449 2138.94,736.539 2129.86,736.539C2106.02,736.539 2092.85,751.297 2092.85,774.461L2092.85,833.941" style="fill:rgb(35,31,32);fill-rule:nonzero;"/>
                <path id="path26" d="M2274.2,739.266L2245.36,739.266L2245.36,755.164L2244.92,755.164C2235.61,743.805 2222.43,736.539 2206.55,736.539C2178.84,736.539 2166.81,756.063 2166.81,782.41L2166.81,856.199L2197.23,856.199L2197.23,793.758C2197.23,779.449 2197.46,760.152 2216.99,760.152C2239.01,760.152 2243.78,783.992 2243.78,798.98L2243.78,856.199L2274.2,856.199L2274.2,739.266" style="fill:rgb(35,31,32);fill-rule:nonzero;"/>
                <path id="path28" d="M2311.86,833.941L2289.39,833.941L2289.39,856.199L2311.86,856.199L2311.86,879.582L2342.29,889.344L2342.29,856.199L2369.31,856.199L2369.31,833.941L2342.29,833.941L2342.29,779.449C2342.29,769.461 2345.01,760.152 2356.6,760.152C2362.04,760.152 2367.26,761.285 2370.44,763.328L2371.35,739.266C2364.99,737.449 2357.95,736.539 2348.87,736.539C2325.03,736.539 2311.86,751.297 2311.86,774.461L2311.86,833.941" style="fill:rgb(35,31,32);fill-rule:nonzero;"/>
                <path id="path30" d="M2461.28,833.941L2438.8,833.941L2438.8,856.199L2461.28,856.199L2461.28,872.547C2461.28,895.93 2474.45,912.277 2498.51,912.277C2506.23,912.277 2514.86,911.141 2520.76,909.781L2518.26,884.578C2515.54,886.168 2511.68,888.664 2505.1,888.664C2494.88,888.664 2491.7,879.813 2491.7,870.73L2491.7,856.199L2518.26,856.199L2518.26,833.941L2491.7,833.941L2491.7,739.266L2461.28,739.266L2461.28,833.941" style="fill:rgb(35,31,32);fill-rule:nonzero;"/>
                <path id="path32" d="M2624.35,903.875L2624.35,877.535L2598.01,877.535L2598.01,903.875L2624.35,903.875ZM2551.23,877.535L2551.23,903.875L2577.57,903.875L2577.57,877.535L2551.23,877.535ZM2641.38,739.266L2612.54,739.266L2612.54,755.164L2612.08,755.164C2602.78,743.805 2589.6,736.539 2573.71,736.539C2546.01,736.539 2533.98,756.063 2533.98,782.41L2533.98,856.199L2564.41,856.199L2564.41,793.758C2564.41,779.449 2564.63,760.152 2584.15,760.152C2606.18,760.152 2610.95,783.992 2610.95,798.98L2610.95,856.199L2641.38,856.199L2641.38,739.266" style="fill:rgb(35,31,32);fill-rule:nonzero;"/>
                <path id="path34" d="M2669.65,856.199L2696.67,856.199L2696.67,829.637L2697.12,829.637C2698.49,840.535 2710.97,858.922 2729.13,858.922C2732.09,858.922 2735.27,858.922 2738.45,858.016L2738.45,827.359C2735.73,828.953 2730.28,829.859 2724.83,829.859C2700.07,829.859 2700.07,798.98 2700.07,782.176L2700.07,739.266L2669.65,739.266L2669.65,856.199" style="fill:rgb(35,31,32);fill-rule:nonzero;"/>
                <path id="path36" d="M1645.28,634.148L1677.06,634.148L1677.06,566.02L1734.28,634.148L1773.33,634.148L1708.17,559.441L1776.06,475.66L1734.51,475.66L1677.52,549.23L1677.06,549.23L1677.06,475.66L1645.28,475.66L1645.28,634.148" style="fill:rgb(35,31,32);fill-rule:nonzero;"/>
                <path id="path38" d="M1793.22,634.148L1825,634.148L1825,475.66L1793.22,475.66L1793.22,634.148" style="fill:rgb(35,31,32);fill-rule:nonzero;"/>
                <path id="path40" d="M1852,524.25L1852,549.23L1911.71,549.23L1911.71,524.25L1852,524.25" style="fill:rgb(35,31,32);fill-rule:nonzero;"/>
                <path id="path42" d="M2018.52,605.086C2008.53,609.391 1997.41,611.891 1986.28,611.891C1975.38,611.891 1961.3,607.125 1961.3,589.871C1961.3,562.391 2030.78,573.969 2030.78,520.852C2030.78,486.102 2003.3,472.941 1971.29,472.941C1954.04,472.941 1946.32,475.199 1930.65,479.07L1933.61,507.672C1944.51,501.77 1956.99,497.922 1969.48,497.922C1981.51,497.922 1997.63,504.039 1997.63,518.352C1997.63,548.539 1928.16,536.059 1928.16,588.504C1928.16,623.922 1955.63,636.863 1983.56,636.863C1997.18,636.863 2009.9,635.047 2021.47,631.188L2018.52,605.086" style="fill:rgb(35,31,32);fill-rule:nonzero;"/>
                <path id="path44" d="M2053.95,592.594L2084.38,592.594L2084.38,475.66L2053.95,475.66L2053.95,592.594ZM2053.95,642.996L2084.38,642.996L2084.38,613.934L2053.95,613.934L2053.95,642.996" style="fill:rgb(35,31,32);fill-rule:nonzero;"/>
                <path id="path46" d="M2189.37,567.391C2183.92,569.891 2178.02,571.711 2168.71,571.711C2149.87,571.711 2137.84,556.719 2137.84,534.691C2137.84,513.121 2148.05,496.551 2169.39,496.551C2178.02,496.551 2187.55,499.73 2192.78,502L2194.14,476.789C2185.29,474.07 2176.2,472.941 2163.71,472.941C2125.35,472.941 2106.05,499.051 2106.05,534.691C2106.05,568.52 2126.03,595.32 2162.58,595.32C2174.84,595.32 2183.69,593.953 2192.09,591.453L2189.37,567.391" style="fill:rgb(35,31,32);fill-rule:nonzero;"/>
                <path id="path48" d="M2212.01,645.945L2242.44,645.945L2242.44,576.699L2242.89,576.699C2250.62,588.055 2263.78,595.32 2279.68,595.32C2307.38,595.32 2319.42,575.789 2319.42,549.449L2319.42,475.66L2288.99,475.66L2288.99,538.102C2288.99,552.41 2288.76,571.711 2269.23,571.711C2247.21,571.711 2242.44,547.859 2242.44,532.879L2242.44,475.66L2212.01,475.66L2212.01,645.945" style="fill:rgb(35,31,32);fill-rule:nonzero;"/>
                <path id="path50" d="M2421.19,545.59C2420.29,560.352 2413.47,573.059 2396.45,573.059C2379.42,573.059 2370.79,561.262 2369.43,545.59L2421.19,545.59ZM2441.63,482.238C2430.5,476.121 2417.79,472.941 2401.44,472.941C2362.85,472.941 2340.36,495.18 2340.36,533.559C2340.36,567.391 2358.3,595.32 2394.63,595.32C2438,595.32 2450.26,565.57 2450.26,524.699L2369.43,524.699C2370.79,505.859 2383.96,495.18 2402.81,495.18C2417.56,495.18 2430.28,500.629 2441.63,507L2441.63,482.238" style="fill:rgb(35,31,32);fill-rule:nonzero;"/>
                <path id="path52" d="M2471.89,592.594L2498.91,592.594L2498.91,566.02L2499.36,566.02C2500.73,576.922 2513.22,595.32 2531.38,595.32C2534.33,595.32 2537.5,595.32 2540.69,594.41L2540.69,563.762C2537.96,565.352 2532.51,566.262 2527.06,566.262C2502.32,566.262 2502.32,535.379 2502.32,518.57L2502.32,475.66L2471.89,475.66L2471.89,592.594" style="fill:rgb(35,31,32);fill-rule:nonzero;"/>
                <path id="path54" d="M2555.72,645.945L2586.15,645.945L2586.15,576.699L2586.59,576.699C2594.32,588.055 2607.48,595.32 2623.38,595.32C2651.08,595.32 2663.12,575.789 2663.12,549.449L2663.12,475.66L2632.69,475.66L2632.69,538.102C2632.69,552.41 2632.46,571.711 2612.93,571.711C2590.91,571.711 2586.15,547.859 2586.15,532.879L2586.15,475.66L2555.72,475.66L2555.72,645.945" style="fill:rgb(35,31,32);fill-rule:nonzero;"/>
                <path id="path56" d="M2764.9,545.59C2763.99,560.352 2757.18,573.059 2740.15,573.059C2723.12,573.059 2714.49,561.262 2713.13,545.59L2764.9,545.59ZM2785.33,482.238C2774.2,476.121 2761.49,472.941 2745.14,472.941C2706.55,472.941 2684.07,495.18 2684.07,533.559C2684.07,567.391 2702.01,595.32 2738.33,595.32C2781.69,595.32 2793.96,565.57 2793.96,524.699L2713.13,524.699C2714.49,505.859 2727.66,495.18 2746.51,495.18C2761.26,495.18 2773.98,500.629 2785.33,507L2785.33,482.238" style="fill:rgb(35,31,32);fill-rule:nonzero;"/>
                <path id="path58" d="M2815.86,592.594L2846.28,592.594L2846.28,475.66L2815.86,475.66L2815.86,592.594ZM2815.86,642.996L2846.28,642.996L2846.28,613.934L2815.86,613.934L2815.86,642.996" style="fill:rgb(35,31,32);fill-rule:nonzero;"/>
                <path id="path60" d="M2884.03,570.34L2861.56,570.34L2861.56,592.594L2884.03,592.594L2884.03,615.984L2914.46,625.738L2914.46,592.594L2941.48,592.594L2941.48,570.34L2914.46,570.34L2914.46,515.852C2914.46,505.859 2917.18,496.551 2928.76,496.551C2934.21,496.551 2939.43,497.68 2942.61,499.73L2943.52,475.66C2937.16,473.84 2930.12,472.941 2921.04,472.941C2897.2,472.941 2884.03,487.691 2884.03,510.859L2884.03,570.34" style="fill:rgb(35,31,32);fill-rule:nonzero;"/>
                <path id="path62" d="M1196.62,846.301L1051.68,846.301L1156.62,951.383L1301.63,951.383L1196.62,846.301ZM976.203,846.301L827.395,846.301L932.336,951.383L1081.17,951.383L976.203,846.301ZM789.844,659.953L789.844,792.832L922.426,792.832L789.844,659.953ZM604.504,846.301L709.445,951.383L856.605,951.383L751.586,846.301L604.504,846.301ZM1116.8,1135.82L1116.8,1004.8L985.785,1004.8L1116.8,1135.82ZM1170.11,1004.96L1170.11,1264.87L910.574,1004.96L687.855,1004.96L475.676,792.75L736.934,792.73L736.934,532.141L997.645,792.82L1218.42,792.82L1430.45,1004.96L1170.11,1004.96" style="fill:rgb(35,31,32);fill-rule:nonzero;"/>
                <path id="path64" d="M1320.81,566.559L1331.28,566.559C1346.93,566.559 1364.88,568.84 1364.88,588.59C1364.88,607.652 1347.15,609.273 1331.28,609.273L1320.81,609.273L1320.81,566.559ZM1288.99,634.258L1323.29,634.258C1357.36,634.258 1398.06,635.379 1398.06,591.324C1398.06,572.68 1385.54,557.238 1365.32,554.52L1365.32,554.07C1373.96,553.379 1378.96,544.738 1382.15,537.719L1407.57,475.691L1372.14,475.691L1353.06,525.219C1348.5,537.02 1344.41,541.551 1331.03,541.551L1320.81,541.551L1320.81,475.691L1288.99,475.691L1288.99,634.258ZM1167.13,634.258L1198.95,634.258L1198.95,500.691L1260.49,500.691L1260.49,475.691L1167.13,475.691L1167.13,634.258ZM1030.36,500.691L1048.05,500.691C1074.61,500.691 1100.29,520.441 1100.29,554.969C1100.29,589.492 1074.61,609.273 1048.05,609.273L1030.36,609.273L1030.36,500.691ZM998.535,634.258L1041.92,634.258C1090.51,634.258 1133.46,617.867 1133.46,554.969C1133.46,492.051 1090.51,475.691 1041.92,475.691L998.535,475.691L998.535,634.258" style="fill:rgb(35,31,32);fill-rule:nonzero;"/>
            </g>
        </g>
    </g>
</svg>
